<?xml version="1.0" encoding="UTF-8"?>
<svg width="700pt" height="700pt" version="1.1" viewBox="0 0 700 700" xmlns="http://www.w3.org/2000/svg" xmlns:xlink="http://www.w3.org/1999/xlink">
 <defs>
  <symbol id="v" overflow="visible">
   <path fill='#ffffff' d="m2.4219-0.14062c-0.125 0.0625-0.25781 0.10938-0.39062 0.14062-0.13672 0.03125-0.27734 0.046875-0.42188 0.046875-0.4375 0-0.78906-0.11719-1.0469-0.35938-0.25-0.25-0.375-0.58203-0.375-1 0-0.41406 0.125-0.74219 0.375-0.98438 0.25781-0.25 0.60938-0.375 1.0469-0.375 0.14453 0 0.28516 0.015625 0.42188 0.046875 0.13281 0.03125 0.26562 0.078125 0.39062 0.14062v0.54688c-0.125-0.082031-0.25-0.14453-0.375-0.1875-0.125-0.039062-0.25781-0.0625-0.39062-0.0625-0.24219 0-0.43359 0.078125-0.57812 0.23438-0.13672 0.15625-0.20312 0.37109-0.20312 0.64062 0 0.27344 0.066406 0.48438 0.20312 0.64062 0.14453 0.15625 0.33594 0.23438 0.57812 0.23438 0.13281 0 0.26562-0.019531 0.39062-0.0625 0.125-0.039062 0.25-0.10156 0.375-0.1875z"/>
  </symbol>
  <symbol id="d" overflow="visible">
   <path fill='#ffffff' d="m1.7656-1.4375c-0.054687-0.019531-0.10938-0.035156-0.17188-0.046875-0.054688-0.019531-0.10547-0.03125-0.15625-0.03125-0.15625 0-0.28125 0.054687-0.375 0.15625-0.085938 0.10547-0.125 0.25781-0.125 0.45312v0.90625h-0.64062v-1.9688h0.64062v0.3125c0.082031-0.125 0.17578-0.21094 0.28125-0.26562 0.10156-0.0625 0.22656-0.09375 0.375-0.09375h0.0625c0.03125 0 0.066406 0.007813 0.10938 0.015625z"/>
  </symbol>
  <symbol id="c" overflow="visible">
   <path fill='#ffffff' d="m2.2812-1v0.1875h-1.4844c0.019531 0.14844 0.070313 0.25781 0.15625 0.32812 0.09375 0.074219 0.22266 0.10938 0.39062 0.10938 0.13281 0 0.26953-0.015625 0.40625-0.046875 0.13281-0.039063 0.28125-0.10156 0.4375-0.1875v0.48438c-0.15625 0.0625-0.30859 0.10547-0.45312 0.125-0.14844 0.03125-0.29688 0.046875-0.45312 0.046875-0.35547 0-0.63281-0.085938-0.82812-0.26562-0.19922-0.1875-0.29688-0.44141-0.29688-0.76562 0-0.32031 0.09375-0.57031 0.28125-0.75 0.19531-0.1875 0.46875-0.28125 0.8125-0.28125 0.3125 0 0.5625 0.09375 0.75 0.28125 0.1875 0.17969 0.28125 0.42188 0.28125 0.73438zm-0.65625-0.20312c0-0.11328-0.039062-0.20703-0.10938-0.28125-0.0625-0.082031-0.15234-0.125-0.26562-0.125-0.125 0-0.23047 0.039063-0.3125 0.10938-0.074219 0.074219-0.11719 0.17188-0.125 0.29688z"/>
  </symbol>
  <symbol id="b" overflow="visible">
   <path fill='#ffffff' d="m1.1875-0.89062c-0.13672 0-0.23438 0.027344-0.29688 0.078125-0.0625 0.042969-0.09375 0.10547-0.09375 0.1875 0 0.085938 0.023437 0.14844 0.078125 0.1875 0.050781 0.042969 0.125 0.0625 0.21875 0.0625 0.11328 0 0.21094-0.039062 0.29688-0.125 0.082031-0.082031 0.125-0.1875 0.125-0.3125v-0.078125zm0.96875-0.23438v1.125h-0.64062v-0.29688c-0.085937 0.125-0.17969 0.21484-0.28125 0.26562-0.10547 0.050781-0.23438 0.078125-0.39062 0.078125-0.21094 0-0.375-0.054688-0.5-0.17188-0.125-0.125-0.1875-0.28125-0.1875-0.46875 0-0.22656 0.078125-0.39453 0.23438-0.5 0.15625-0.11328 0.40625-0.17188 0.75-0.17188h0.375v-0.046875c0-0.10156-0.042969-0.17578-0.125-0.21875-0.074219-0.050781-0.19531-0.078125-0.35938-0.078125-0.13672 0-0.26172 0.015625-0.375 0.046875-0.11719 0.03125-0.22656 0.074219-0.32812 0.125v-0.48438c0.13281-0.03125 0.26953-0.050781 0.40625-0.0625 0.13281-0.019531 0.26953-0.03125 0.40625-0.03125 0.35156 0 0.60938 0.074219 0.76562 0.21875 0.16406 0.13672 0.25 0.35938 0.25 0.67188z"/>
  </symbol>
  <symbol id="a" overflow="visible">
   <path fill='#ffffff' d="m1-2.5312v0.5625h0.64062v0.45312h-0.64062v0.82812c0 0.09375 0.015625 0.15625 0.046875 0.1875s0.10156 0.046875 0.21875 0.046875h0.32812v0.45312h-0.54688c-0.25 0-0.42969-0.050781-0.53125-0.15625-0.10547-0.10156-0.15625-0.28125-0.15625-0.53125v-0.82812h-0.3125v-0.45312h0.3125v-0.5625z"/>
  </symbol>
  <symbol id="l" overflow="visible">
   <path fill='#ffffff' d="m1.6406-1.6875v-1.0625h0.64062v2.75h-0.64062v-0.28125c-0.085937 0.11719-0.17969 0.19922-0.28125 0.25-0.10547 0.050781-0.22656 0.078125-0.35938 0.078125-0.25 0-0.45312-0.09375-0.60938-0.28125-0.15625-0.19531-0.23438-0.44531-0.23438-0.75 0-0.30078 0.078125-0.54688 0.23438-0.73438 0.15625-0.19531 0.35938-0.29688 0.60938-0.29688 0.13281 0 0.25391 0.027344 0.35938 0.078125 0.10156 0.054688 0.19531 0.13672 0.28125 0.25zm-0.40625 1.2812c0.13281 0 0.23438-0.046875 0.29688-0.14062 0.070312-0.10156 0.10938-0.25 0.10938-0.4375s-0.039063-0.32812-0.10938-0.42188c-0.0625-0.10156-0.16406-0.15625-0.29688-0.15625-0.13672 0-0.24219 0.054688-0.3125 0.15625-0.074219 0.09375-0.10938 0.23438-0.10938 0.42188s0.035156 0.33594 0.10938 0.4375c0.070313 0.09375 0.17578 0.14062 0.3125 0.14062z"/>
  </symbol>
  <symbol id="g" overflow="visible">
   <path fill='#ffffff' d="m1.3594-0.40625c0.13281 0 0.23438-0.046875 0.29688-0.14062 0.070312-0.10156 0.10938-0.25 0.10938-0.4375s-0.039063-0.32812-0.10938-0.42188c-0.0625-0.10156-0.16406-0.15625-0.29688-0.15625-0.13672 0-0.24219 0.054688-0.3125 0.15625-0.074219 0.09375-0.10938 0.23438-0.10938 0.42188s0.035156 0.33594 0.10938 0.4375c0.070313 0.09375 0.17578 0.14062 0.3125 0.14062zm-0.42188-1.2812c0.082031-0.11328 0.17578-0.19531 0.28125-0.25 0.10156-0.050781 0.22656-0.078125 0.375-0.078125 0.23828 0 0.4375 0.10156 0.59375 0.29688 0.15625 0.1875 0.23438 0.43359 0.23438 0.73438 0 0.30469-0.078125 0.55469-0.23438 0.75-0.15625 0.1875-0.35547 0.28125-0.59375 0.28125-0.14844 0-0.27344-0.027344-0.375-0.078125-0.10547-0.050781-0.19922-0.13281-0.28125-0.25v0.28125h-0.64062v-2.75h0.64062z"/>
  </symbol>
  <symbol id="f" overflow="visible">
   <path fill='#ffffff' d="m0.046875-1.9688h0.625l0.53125 1.3281 0.45312-1.3281h0.625l-0.82812 2.1562c-0.085937 0.21875-0.18359 0.36719-0.29688 0.45312-0.10547 0.09375-0.25 0.14062-0.4375 0.14062h-0.35938v-0.42188h0.20312c0.10156 0 0.17578-0.015625 0.21875-0.046875 0.050781-0.03125 0.09375-0.09375 0.125-0.1875l0.015625-0.046875z"/>
  </symbol>
  <symbol id="k" overflow="visible">
   <path fill='#ffffff' d="m2.7031-0.20312c-0.17969 0.085937-0.35938 0.14844-0.54688 0.1875-0.17969 0.039062-0.35938 0.0625-0.54688 0.0625-0.4375 0-0.78906-0.11719-1.0469-0.35938-0.25-0.25-0.375-0.58203-0.375-1 0-0.42578 0.12891-0.75781 0.39062-1 0.25781-0.23828 0.61328-0.35938 1.0625-0.35938 0.17578 0 0.34375 0.015625 0.5 0.046875 0.16406 0.03125 0.31641 0.078125 0.45312 0.14062v0.54688c-0.14844-0.082031-0.29297-0.14453-0.4375-0.1875-0.14844-0.039062-0.29297-0.0625-0.4375-0.0625-0.27344 0-0.48047 0.078125-0.625 0.23438-0.14844 0.14844-0.21875 0.35938-0.21875 0.64062s0.066406 0.5 0.20312 0.65625c0.14453 0.14844 0.34766 0.21875 0.60938 0.21875 0.070312 0 0.14062-0.003906 0.20312-0.015625 0.0625-0.007813 0.11328-0.023437 0.15625-0.046875v-0.5h-0.40625v-0.46875h1.0625z"/>
  </symbol>
  <symbol id="j" overflow="visible">
   <path fill='#ffffff' d="m2.2812-1.2031v1.2031h-0.625v-0.92188c0-0.16406-0.007812-0.28125-0.015625-0.34375-0.011719-0.070313-0.023437-0.125-0.03125-0.15625-0.03125-0.039063-0.070313-0.070313-0.10938-0.09375-0.042969-0.019531-0.089844-0.03125-0.14062-0.03125-0.13672 0-0.24219 0.054687-0.3125 0.15625-0.074219 0.10547-0.10938 0.24609-0.10938 0.42188v0.96875h-0.64062v-2.75h0.64062v1.0625c0.09375-0.11328 0.19141-0.19531 0.29688-0.25 0.10156-0.050781 0.22266-0.078125 0.35938-0.078125 0.22656 0 0.39844 0.070313 0.51562 0.20312 0.11328 0.13672 0.17188 0.33984 0.17188 0.60938z"/>
  </symbol>
  <symbol id="u" overflow="visible">
   <path fill='#ffffff' d="m0.29688-1.9688h0.64062v1.9688h-0.64062zm0-0.78125h0.64062v0.51562h-0.64062z"/>
  </symbol>
  <symbol id="t" overflow="visible">
   <path fill='#ffffff' d="m1.8438-1.9062v0.46875c-0.13672-0.050781-0.26562-0.09375-0.39062-0.125s-0.24609-0.046875-0.35938-0.046875c-0.11719 0-0.20312 0.015625-0.26562 0.046875-0.054687 0.03125-0.078125 0.078125-0.078125 0.14062 0 0.054687 0.019531 0.09375 0.0625 0.125 0.039062 0.023437 0.11719 0.039063 0.23438 0.046875l0.10938 0.015625c0.32031 0.042969 0.53906 0.10938 0.65625 0.20312 0.11328 0.09375 0.17188 0.24609 0.17188 0.45312 0 0.21094-0.078125 0.36719-0.23438 0.46875-0.15625 0.10547-0.39062 0.15625-0.70312 0.15625-0.125 0-0.26172-0.011719-0.40625-0.03125-0.13672-0.019531-0.27734-0.050781-0.42188-0.09375v-0.46875c0.125 0.0625 0.25 0.10938 0.375 0.14062 0.13281 0.023438 0.26953 0.03125 0.40625 0.03125 0.125 0 0.21875-0.015625 0.28125-0.046875s0.09375-0.082031 0.09375-0.15625c0-0.050781-0.023438-0.085937-0.0625-0.10938-0.042969-0.03125-0.125-0.054688-0.25-0.078125l-0.10938-0.015625c-0.28125-0.03125-0.48047-0.09375-0.59375-0.1875-0.11719-0.09375-0.17188-0.23828-0.17188-0.4375 0-0.20703 0.066406-0.35938 0.20312-0.45312 0.14453-0.10156 0.36719-0.15625 0.67188-0.15625 0.11328 0 0.23438 0.011719 0.35938 0.03125 0.13281 0.011719 0.27344 0.039063 0.42188 0.078125z"/>
  </symbol>
  <symbol id="s" overflow="visible">
   <path fill='#ffffff' d="m0.32812-2.625h0.85938l0.60938 1.4062 0.59375-1.4062h0.875v2.625h-0.65625v-1.9219l-0.59375 1.4219h-0.4375l-0.60938-1.4219v1.9219h-0.64062z"/>
  </symbol>
  <symbol id="i" overflow="visible">
   <path fill='#ffffff' d="m0.28125-0.76562v-1.2031h0.64062v0.1875c0 0.11719-0.007813 0.25781-0.015625 0.42188v0.3125c0 0.15625 0.003906 0.27344 0.015625 0.34375 0.007813 0.0625 0.023437 0.10938 0.046875 0.14062 0.019531 0.042969 0.050781 0.078125 0.09375 0.10938 0.039062 0.023437 0.09375 0.03125 0.15625 0.03125 0.125 0 0.22266-0.050781 0.29688-0.15625 0.082031-0.10156 0.125-0.24219 0.125-0.42188v-0.96875h0.625v1.9688h-0.625v-0.28125c-0.09375 0.11719-0.19922 0.19922-0.3125 0.25-0.10547 0.050781-0.21875 0.078125-0.34375 0.078125-0.23047 0-0.40625-0.066406-0.53125-0.20312-0.11719-0.14453-0.17188-0.34766-0.17188-0.60938z"/>
  </symbol>
  <symbol id="h" overflow="visible">
   <path fill='#ffffff' d="m0.29688-1.9688h0.64062v1.9375c0 0.25781-0.070312 0.45703-0.20312 0.59375-0.125 0.14453-0.30859 0.21875-0.54688 0.21875h-0.3125v-0.42188h0.10938c0.125 0 0.20703-0.027344 0.25-0.078125 0.039063-0.054688 0.0625-0.15625 0.0625-0.3125zm0-0.78125h0.64062v0.51562h-0.64062z"/>
  </symbol>
  <symbol id="r" overflow="visible">
   <path fill='#ffffff' d="m1.6094-2.75v0.42188h-0.35938c-0.085938 0-0.14844 0.015625-0.1875 0.046875-0.03125 0.03125-0.046875 0.089844-0.046875 0.17188v0.14062h0.53125v0.45312h-0.53125v1.5156h-0.64062v-1.5156h-0.3125v-0.45312h0.3125v-0.14062c0-0.21875 0.054688-0.37891 0.17188-0.48438 0.125-0.10156 0.31641-0.15625 0.57812-0.15625z"/>
  </symbol>
  <symbol id="e" overflow="visible">
   <path fill='#ffffff' d="m1.25-1.5625c-0.14844 0-0.25781 0.054688-0.32812 0.15625-0.074219 0.09375-0.10938 0.23438-0.10938 0.42188s0.035156 0.33594 0.10938 0.4375c0.070313 0.09375 0.17969 0.14062 0.32812 0.14062 0.13281 0 0.23828-0.046875 0.3125-0.14062 0.070312-0.10156 0.10938-0.25 0.10938-0.4375s-0.039063-0.32812-0.10938-0.42188c-0.074219-0.10156-0.17969-0.15625-0.3125-0.15625zm0-0.45312c0.33203 0 0.59375 0.09375 0.78125 0.28125 0.19531 0.17969 0.29688 0.42969 0.29688 0.75 0 0.32422-0.10156 0.57812-0.29688 0.76562-0.1875 0.17969-0.44922 0.26562-0.78125 0.26562-0.34375 0-0.61719-0.085938-0.8125-0.26562-0.1875-0.1875-0.28125-0.44141-0.28125-0.76562 0-0.32031 0.09375-0.57031 0.28125-0.75 0.19531-0.1875 0.46875-0.28125 0.8125-0.28125z"/>
  </symbol>
  <symbol id="q" overflow="visible">
   <path fill='#ffffff' d="m2.125-1.6406c0.082031-0.125 0.17578-0.21875 0.28125-0.28125 0.11328-0.0625 0.23828-0.09375 0.375-0.09375 0.22656 0 0.39844 0.070313 0.51562 0.20312 0.11328 0.13672 0.17188 0.33984 0.17188 0.60938v1.2031h-0.625v-1.0312-0.03125-0.078125c0-0.14453-0.023438-0.25-0.0625-0.3125-0.042969-0.0625-0.10938-0.09375-0.20312-0.09375-0.11719 0-0.21094 0.054687-0.28125 0.15625-0.0625 0.09375-0.09375 0.23438-0.09375 0.42188v0.96875h-0.64062v-1.0312c0-0.21875-0.023438-0.35938-0.0625-0.42188-0.03125-0.0625-0.09375-0.09375-0.1875-0.09375-0.125 0-0.21875 0.054687-0.28125 0.15625-0.0625 0.09375-0.09375 0.23438-0.09375 0.42188v0.96875h-0.64062v-1.9688h0.64062v0.28125c0.070312-0.11328 0.16016-0.19531 0.26562-0.25 0.10156-0.050781 0.21094-0.078125 0.32812-0.078125 0.13281 0 0.25391 0.03125 0.35938 0.09375 0.10156 0.0625 0.17969 0.15625 0.23438 0.28125z"/>
  </symbol>
  <symbol id="p" overflow="visible">
   <path fill='#ffffff' d="m0.32812-2.625h0.76562l0.95312 1.7969v-1.7969h0.64062v2.625h-0.75l-0.96875-1.8125v1.8125h-0.64062z"/>
  </symbol>
  <symbol id="o" overflow="visible">
   <path fill='#ffffff' d="m2.2812-1.2031v1.2031h-0.625v-0.92188c0-0.16406-0.007812-0.28125-0.015625-0.34375-0.011719-0.070313-0.023437-0.125-0.03125-0.15625-0.03125-0.039063-0.070313-0.070313-0.10938-0.09375-0.042969-0.019531-0.089844-0.03125-0.14062-0.03125-0.13672 0-0.24219 0.054687-0.3125 0.15625-0.074219 0.10547-0.10938 0.24609-0.10938 0.42188v0.96875h-0.64062v-1.9688h0.64062v0.28125c0.09375-0.11328 0.19141-0.19531 0.29688-0.25 0.10156-0.050781 0.22266-0.078125 0.35938-0.078125 0.22656 0 0.39844 0.070313 0.51562 0.20312 0.11328 0.13672 0.17188 0.33984 0.17188 0.60938z"/>
  </symbol>
  <symbol id="n" overflow="visible">
   <path fill='#ffffff' d="m0.32812-2.625h1.125c0.33203 0 0.58594 0.074219 0.76562 0.21875 0.1875 0.14844 0.28125 0.35938 0.28125 0.64062 0 0.27344-0.09375 0.48438-0.28125 0.64062-0.17969 0.14844-0.43359 0.21875-0.76562 0.21875h-0.4375v0.90625h-0.6875zm0.6875 0.48438v0.73438h0.375c0.125 0 0.22266-0.03125 0.29688-0.09375 0.070312-0.0625 0.10938-0.14844 0.10938-0.26562 0-0.125-0.039063-0.21875-0.10938-0.28125-0.074219-0.0625-0.17188-0.09375-0.29688-0.09375z"/>
  </symbol>
  <symbol id="m" overflow="visible">
   <path fill='#ffffff' d="m1.8906-1.9062v0.51562c-0.085937-0.0625-0.16797-0.10156-0.25-0.125-0.085937-0.03125-0.17188-0.046875-0.26562-0.046875-0.17969 0-0.32031 0.054688-0.42188 0.15625-0.09375 0.09375-0.14062 0.23438-0.14062 0.42188s0.046875 0.33594 0.14062 0.4375c0.10156 0.09375 0.24219 0.14062 0.42188 0.14062 0.09375 0 0.17969-0.007812 0.26562-0.03125 0.09375-0.03125 0.17578-0.078125 0.25-0.14062v0.51562c-0.09375 0.042969-0.19531 0.066406-0.29688 0.078125-0.10547 0.019531-0.20312 0.03125-0.29688 0.03125-0.35547 0-0.63672-0.085938-0.84375-0.26562-0.19922-0.1875-0.29688-0.44141-0.29688-0.76562 0-0.32031 0.097656-0.57031 0.29688-0.75 0.20703-0.1875 0.48828-0.28125 0.84375-0.28125 0.10156 0 0.20312 0.011719 0.29688 0.03125 0.10156 0.011719 0.20312 0.039063 0.29688 0.078125z"/>
  </symbol>
 </defs>
 <g>
  <path fill='#ffffff' d="m383.51 279.64-203.24 211.89 71.352 68.469 268.11-280.36-268.11-279.64-71.352 68.469z" fill-rule="evenodd"/>
 </g>
</svg>
